<?xml version="1.0" encoding="utf-8"?>
<!-- Generator: Adobe Illustrator 24.0.3, SVG Export Plug-In . SVG Version: 6.00 Build 0)  -->
<svg version="1.1" id="Capa_1" xmlns="http://www.w3.org/2000/svg" xmlns:xlink="http://www.w3.org/1999/xlink" x="0px" y="0px"
	 viewBox="0 0 512 512" style="enable-background:new 0 0 512 512;" xml:space="preserve">
<style type="text/css">
	.st0{fill:#141717;}
</style>
<g>
	<g>
		<path class="st0" d="M485.5,12.1c-1.4-5.6-5.9-10-11.5-11.4c-5.7-1.5-11.6,0.3-15.6,4.4c-0.3,0.3-27.4,27.8-118,62.5
			c-31.8,12.2-54.9,35.2-65.1,64.9c-6.6,19-9.7,47.8,4.4,84.6C341.9,145,415.1,124.9,416,124c-48.5,30-118.9,126.9-118.9,126.9
			c-21.7,49.6-35.4,100.5-43.7,143C181.2,69.7,44.9,4.3,38.6,1.4c-8.1-3.6-17.5-0.1-21.2,8c-3.6,8-0.1,17.5,8,21.2
			c1.5,0.7,153.9,74,215.2,467.9c1.2,7.8,8,13.5,15.8,13.5c0.3,0,0.6,0,0.9,0c8.2-0.5,14.8-7.1,15.1-15.3
			c0.1-1.6,6-123.7,54.9-234.9c6.6,1,13.8,1.8,22.3,1.8c36.4,0,87.4-13.2,127.7-74.6c0.3-0.4,0.6-0.9,0.8-1.4
			C512.7,120.7,486.6,16.5,485.5,12.1z"/>
	</g>
</g>
</svg>
