<?xml version="1.0" encoding="utf-8"?>
<!-- Generator: Adobe Illustrator 24.0.3, SVG Export Plug-In . SVG Version: 6.00 Build 0)  -->
<svg version="1.1" id="Capa_1" xmlns="http://www.w3.org/2000/svg" xmlns:xlink="http://www.w3.org/1999/xlink" x="0px" y="0px"
	 viewBox="0 0 512 511" style="enable-background:new 0 0 512 511;" xml:space="preserve">
<style type="text/css">
	.st0{fill:#141717;}
</style>
<path class="st0" d="M224.5,350.1l-57.2-143l-20.5,61.4H30.4c31.2,48.4,85.3,94.7,153.6,152.9c19.5,16.6,40.3,34.3,62.1,53.4
	l9.9,8.6l9.9-8.6c21.8-19.1,42.6-36.8,62.1-53.4c68.3-58.2,122.4-104.4,153.6-152.9H265.3L224.5,350.1z"/>
<path class="st0" d="M377.1,28.5C315.6,28.7,276.5,70.6,256,109c-20.4-38.2-59.4-80.5-120-80.5c-0.4,0-0.7,0-1,0
	C63.6,29.1,3.8,90,0.2,167.1c-1.2,25.7,3.6,49,13.2,71.4h111.8l39.5-118.6l62.8,157l19.2-38.4h251.9c9.6-22.4,14.4-45.7,13.2-71.4
	C508.2,90,448.4,29.1,377.1,28.5z"/>
</svg>
